<?xml version="1.0" standalone="no"?>
<!DOCTYPE svg PUBLIC "-//W3C//DTD SVG 20010904//EN"
 "http://www.w3.org/TR/2001/REC-SVG-20010904/DTD/svg10.dtd">
<svg version="1.0" xmlns="http://www.w3.org/2000/svg"
 width="512.000000pt" height="512.000000pt" viewBox="0 0 512.000000 512.000000"
 preserveAspectRatio="xMidYMid meet">

<g transform="translate(0.000000,512.000000) scale(0.100000,-0.100000)"
fill="#000000" stroke="none">
<path d="M1933 4441 c-79 -20 -153 -87 -182 -164 -19 -50 -13 -137 13 -192 12
-27 141 -256 284 -508 144 -251 262 -461 262 -466 0 -4 -30 -35 -67 -68 -51
-44 -176 -121 -486 -298 -229 -131 -416 -239 -415 -241 2 -1 39 5 83 13 130
25 478 22 630 -6 380 -68 664 -178 1125 -436 226 -126 320 -175 320 -168 0 3
-147 297 -327 652 -261 516 -390 759 -645 1205 -175 308 -329 573 -342 590
-49 65 -173 107 -253 87z"/>
<path d="M3631 3585 c-138 -39 -278 -149 -344 -272 -33 -62 -67 -189 -67 -253
0 -242 170 -468 403 -535 75 -22 219 -22 294 0 198 58 341 209 388 410 63 262
-93 544 -350 636 -79 28 -247 35 -324 14z"/>
<path d="M1550 2109 c-523 -30 -986 -290 -1271 -714 -74 -109 -179 -321 -214
-429 -26 -81 -69 -275 -62 -282 2 -2 35 36 74 84 256 316 591 565 896 667 336
112 699 98 1127 -45 194 -64 314 -117 629 -275 392 -197 541 -258 811 -334
220 -63 316 -76 545 -75 168 0 215 3 291 21 320 75 546 255 661 527 80 189
103 435 59 625 l-12 54 -34 -94 c-73 -204 -190 -395 -297 -486 -123 -103 -247
-146 -418 -145 -281 1 -631 131 -1170 432 -414 232 -614 318 -932 400 -234 61
-449 83 -683 69z"/>
</g>
</svg>
